<?xml version="1.0" encoding="iso-8859-1"?>
<!-- Generator: Adobe Illustrator 18.0.0, SVG Export Plug-In . SVG Version: 6.00 Build 0)  -->
<!DOCTYPE svg PUBLIC "-//W3C//DTD SVG 1.1//EN" "http://www.w3.org/Graphics/SVG/1.1/DTD/svg11.dtd">
<svg version="1.1" id="Capa_1" xmlns="http://www.w3.org/2000/svg" xmlns:xlink="http://www.w3.org/1999/xlink" x="0px" y="0px"
	 viewBox="0 0 481.477 481.477" style="enable-background:new 0 0 481.477 481.477;" xml:space="preserve" fill="#30495f">
<path d="M478.714,357.333L392.151,286.8v-48.499c0-4.142-3.357-7.5-7.5-7.5h-29.084l12.488-90.151
	c0.048-0.341,0.071-0.685,0.071-1.029v-31.216c0-4.142-3.357-7.5-7.5-7.5h-66.953c-4.143,0-7.5,3.358-7.5,7.5v31.216
	c0,0.344,0.023,0.688,0.071,1.029l12.488,90.151h-23.629v-35.555c0-11.889-9.673-21.561-21.562-21.561s-21.561,9.672-21.561,21.561
	v35.555H203.97v-50.183h13.273c4.143,0,7.5-3.358,7.5-7.5v-32.004c0-4.142-3.357-7.5-7.5-7.5H7.5c-4.143,0-7.5,3.358-7.5,7.5v32.004
	c0,4.142,3.357,7.5,7.5,7.5h13.273v89.068c0,4.142,3.357,7.5,7.5,7.5h25.077c-12.18,10.849-19.87,26.636-19.87,44.191
	c0,32.637,26.553,59.19,59.19,59.19c21.607,0,41.384-12.034,51.689-30.398c10.305,18.364,30.083,30.398,51.69,30.398
	c19.921,0,37.562-9.899,48.297-25.025c5.865,14.65,20.198,25.03,36.917,25.03c15.55,0,29.034-8.978,35.564-22.019
	c6.53,13.04,20.015,22.019,35.564,22.019c10.822,0,20.642-4.351,27.818-11.39c1.244,0.916,2.775,1.464,4.439,1.464h89.325
	c3.173,0,6.002-1.997,7.066-4.986C482.106,362.672,481.174,359.337,478.714,357.333z M377.151,309.743
	c-6.798-5.427-15.402-8.683-24.757-8.683c-7.215,0-13.981,1.942-19.82,5.315v-60.574h44.577V309.743z M353.126,115.905v16.216
	h-51.953v-16.216H353.126z M302.283,147.12h49.732l-11.591,83.681h-26.55L302.283,147.12z M246.98,195.246
	c0-3.618,2.943-6.561,6.561-6.561c3.618,0,6.562,2.943,6.562,6.561v35.555H246.98V195.246z M256.081,245.801v64.278
	c-0.569,0.467-1.124,0.95-1.666,1.448c-4.275-25.398-24.776-45.345-50.446-48.794v-16.932H256.081z M198.123,298.992h-40.16
	c7.823-13.208,22.303-21.804,38.088-21.804c22.532,0,41.167,16.947,43.854,38.759h-34.282v-9.455
	C205.623,302.35,202.266,298.992,198.123,298.992z M98.103,328.767v-14.775h92.521v14.775H98.103z M188.97,215.043h-9.813v-34.425
	h9.813V215.043z M106.261,180.618v34.425H93.14v-34.425H106.261z M121.261,180.618h42.896v34.425h-42.896V180.618z M15,148.614
	h194.743v17.004H15V148.614z M78.14,180.618v34.425H35.773v-34.425H78.14z M35.773,262.186v-32.144H188.97v32.58
	c-18.781,2.302-35.442,13.627-44.609,29.963c-10.305-18.364-30.082-30.398-51.689-30.398v-0.001H35.773z M92.671,277.188
	c15.785,0,30.264,8.596,38.087,21.804H90.603c-4.143,0-7.5,3.358-7.5,7.5v9.455H48.826
	C51.513,294.135,70.144,277.188,92.671,277.188z M92.671,365.568c-21.08,0-38.749-14.841-43.135-34.621h33.566v5.32
	c0,4.142,3.357,7.5,7.5,7.5h40.153C122.933,356.973,108.455,365.568,92.671,365.568z M196.051,365.568
	c-15.784,0-30.262-8.594-38.086-21.801h40.158c4.143,0,7.5-3.358,7.5-7.5v-5.32h33.572
	C234.809,350.726,217.136,365.568,196.051,365.568z M281.266,365.573c-13.651,0-24.757-11.105-24.757-24.756
	s11.105-24.756,24.757-24.756c13.65,0,24.756,11.105,24.756,24.756S294.916,365.573,281.266,365.573z M281.266,301.06
	c-3.52,0-6.932,0.465-10.185,1.328v-56.587h46.493v75.854c-0.259,0.468-0.504,0.944-0.744,1.423
	C310.3,310.038,296.815,301.06,281.266,301.06z M352.395,365.573c-13.65,0-24.756-11.105-24.756-24.756s11.105-24.756,24.756-24.756
	c13.651,0,24.757,11.105,24.757,24.756S366.046,365.573,352.395,365.573z M392.151,355.647v-35.692v-13.806l60.747,49.498H392.151z"
	/>
<g>
</g>
<g>
</g>
<g>
</g>
<g>
</g>
<g>
</g>
<g>
</g>
<g>
</g>
<g>
</g>
<g>
</g>
<g>
</g>
<g>
</g>
<g>
</g>
<g>
</g>
<g>
</g>
<g>
</g>
</svg>
